<svg width="48" height="48" viewBox="0 0 48 48" fill="none" xmlns="http://www.w3.org/2000/svg">
  <path fill-rule="evenodd" clip-rule="evenodd" d="M20.4 12.6C13 12.6 7 17.2 7 23C7 26.2 8.9 29 11.9 30.9L10.9 34.5C10.8 34.9 11.2 35.2 11.5 35L15.9 32.7C17.3 33.1 18.8 33.3 20.4 33.3C27.8 33.3 33.8 28.7 33.8 23C33.8 17.2 27.8 12.6 20.4 12.6ZM16 21.7C17 21.7 17.8 20.9 17.8 19.9C17.8 18.9 17 18.1 16 18.1C15 18.1 14.2 18.9 14.2 19.9C14.2 20.9 15 21.7 16 21.7ZM24.7 21.7C25.7 21.7 26.5 20.9 26.5 19.9C26.5 18.9 25.7 18.1 24.7 18.1C23.7 18.1 22.9 18.9 22.9 19.9C22.9 20.9 23.7 21.7 24.7 21.7Z" fill="white"/>
  <path fill-rule="evenodd" clip-rule="evenodd" d="M28.2 21.6C21.8 21.6 16.6 25.6 16.6 30.5C16.6 35.5 21.8 39.4 28.2 39.4C29.5 39.4 30.8 39.2 32 38.9L35.8 40.9C36.1 41.1 36.5 40.8 36.3 40.4L35.5 37.4C38.1 35.8 39.8 33.3 39.8 30.5C39.8 25.6 34.6 21.6 28.2 21.6ZM24.8 30.2C25.6 30.2 26.3 29.5 26.3 28.7C26.3 27.9 25.6 27.2 24.8 27.2C24 27.2 23.3 27.9 23.3 28.7C23.3 29.5 24 30.2 24.8 30.2ZM32.9 30.2C33.7 30.2 34.4 29.5 34.4 28.7C34.4 27.9 33.7 27.2 32.9 27.2C32.1 27.2 31.4 27.9 31.4 28.7C31.4 29.5 32.1 30.2 32.9 30.2Z" fill="white"/>
</svg>
